<svg width="126" height="56" viewBox="0 0 126 56" fill="none" xmlns="http://www.w3.org/2000/svg">
<path d="M44.9166 3.57853e-06L73.9149 53.3749C74.6727 54.6875 75.2499 56 76.1249 56C76.9999 56 77.2916 55.4347 77.8072 54.5416L89.8333 32.6666C90.5113 31.4612 91.983 30.3333 93.4414 30.3333C94.8997 30.3333 96.1175 31.3942 96.8333 32.6666L109.667 56H126L96.8333 2.33333C95.9583 0.817731 94.7916 4.77008e-05 93.3333 4.77008e-05C91.8749 4.77008e-05 90.7594 0.729135 89.8333 2.33333L78.3124 23.3333C77.4508 24.8257 76.2708 25.6668 74.8124 25.6668C73.3541 25.6668 72.1774 24.8315 71.3124 23.3333L58.4791 3.57853e-06H44.9166Z" fill="#AAD4C8"/>
<path d="M0 56H16.3333L29.1666 32.6666C30.0416 31.1511 31.2082 30.3333 32.6666 30.3333C34.1251 30.3333 35.2916 31.1511 36.1666 32.6666L49 56H65.3333L36.1666 2.33333C35.2916 0.817792 34.1251 8.86679e-06 32.6666 0C31.2082 -8.86664e-06 30.0416 0.817788 29.1666 2.33333L0 56Z" fill="#AAD4C8"/>
<path d="M36.1666 44.3335C36.1666 46.2666 34.5998 47.8335 32.6666 47.8335C30.7335 47.8335 29.1666 46.2666 29.1666 44.3335C29.1666 42.4004 30.7335 40.8335 32.6666 40.8335C34.5998 40.8335 36.1666 42.4004 36.1666 44.3335Z" fill="#AAD4C8"/>
</svg>
