<svg width="432" height="192" viewBox="0 0 432 192" fill="none" xmlns="http://www.w3.org/2000/svg">
<path d="M154 1.22692e-05L253.423 183C256.021 187.5 258 192 261 192C264 192 265 190.062 266.768 187L308 112C310.325 107.867 315.371 104 320.371 104C325.371 104 329.546 107.637 332 112L376 192H432L332 8.00001C329 2.80365 325 0.000163546 320 0.000163546C315 0.000163546 311.175 2.49989 308 8.00001L268.5 80C265.546 85.1167 261.5 88.0004 256.5 88.0004C251.5 88.0005 247.466 85.1366 244.5 80L200.5 1.22692e-05H154Z" fill="white"/>
<path d="M0 192H55.9999L100 112C103 106.804 107 104 112 104C117 104 121 106.804 124 112L168 192H224L124 8C121 2.80386 117 3.04004e-05 112 0C107 -3.03999e-05 103 2.80385 100 8L0 192Z" fill="white"/>
<path d="M124 152C124 158.628 118.628 164 112 164C105.372 164 100 158.628 100 152C100 145.372 105.372 140 112 140C118.628 140 124 145.372 124 152Z" fill="white"/>
</svg>
