<svg width="512" height="513" viewBox="0 0 512 513" fill="none" xmlns="http://www.w3.org/2000/svg">
<rect width="512" height="512.421" rx="120" fill="black"/>
<path d="M240.59 160.91L283.375 241.468C285.198 243.937 286.892 245.53 288.778 246.395C292.763 248.221 297.348 248.221 301.332 246.395C305.905 244.298 309.349 237.919 316.234 225.162L316.235 225.159L338.741 183.416L339.205 182.605C346.091 169.847 349.535 163.467 354.108 161.37C358.093 159.544 362.679 159.543 366.663 161.37C371.237 163.467 374.681 169.847 381.566 182.605L472.645 351.361H416.388L397.666 316.673C397.585 316.522 397.503 316.37 397.421 316.218L381.565 286.841C374.679 274.082 371.236 267.702 366.662 265.605C362.678 263.779 358.093 263.779 354.108 265.605C352.222 266.47 350.528 268.063 348.705 270.532L324.513 315.7L311.313 340.473C308.043 346.611 306.407 349.679 304.221 350.693C302.316 351.577 300.12 351.585 298.208 350.717C296.014 349.72 294.355 346.663 291.036 340.551L287.897 334.77C285.019 329.516 281.005 322.12 276.246 313.312L271.246 304.102C270.303 302.365 269.507 300.899 268.866 299.634C239.638 245.389 194 160 194 160H240.099L240.59 160.91Z" fill="white"/>
<path d="M145.982 161.37C149.967 159.544 154.553 159.543 158.538 161.37C163.111 163.467 166.555 169.848 173.44 182.606L264.52 351.361H208.263L189.54 316.673C189.459 316.523 189.378 316.37 189.296 316.218L173.439 286.841C166.554 274.083 163.111 267.703 158.537 265.606C154.553 263.779 149.967 263.779 145.982 265.606C141.409 267.703 137.966 274.082 131.08 286.84L115.224 316.218C115.141 316.37 115.06 316.523 114.979 316.673L96.2568 351.361H40L58.9248 316.295C58.9807 316.191 59.0373 316.087 59.0938 315.983L131.08 182.606C137.966 169.847 141.409 163.467 145.982 161.37ZM153.262 297.417C159.905 297.417 165.29 302.789 165.29 309.417C165.29 316.045 159.905 321.417 153.262 321.417C146.619 321.417 141.235 316.045 141.234 309.417C141.235 302.79 146.619 297.417 153.262 297.417Z" fill="white"/>
</svg>
