<svg width="512" height="512" viewBox="0 0 512 512" fill="none" xmlns="http://www.w3.org/2000/svg">
<rect width="512" height="512" rx="120" fill="black"/>
<path d="M194 160L293.423 343C296.021 347.5 298 352 301 352C304 352 305 350.062 306.768 347L348 272C350.325 267.867 355.371 264 360.371 264C365.371 264 369.546 267.637 372 272L416 352H472L372 168C369 162.804 365 160 360 160C355 160 351.175 162.5 348 168L308.5 240C305.546 245.117 301.5 248 296.5 248C291.5 248 287.466 245.137 284.5 240L240.5 160H194Z" fill="white"/>
<path d="M40 352H95.9999L140 272C143 266.804 147 264 152 264C157 264 161 266.804 164 272L208 352H264L164 168C161 162.804 157 160 152 160C147 160 143 162.804 140 168L40 352Z" fill="white"/>
<path d="M164 312C164 318.628 158.628 324 152 324C145.372 324 140 318.628 140 312C140 305.372 145.372 300 152 300C158.628 300 164 305.372 164 312Z" fill="white"/>
</svg>
