<svg width="398" height="329" viewBox="0 0 398 329" fill="none" xmlns="http://www.w3.org/2000/svg">
<path d="M327.001 3.0625C308.003 32.8256 285.165 71.0624 266.826 102.298L341.976 162.056L345.936 165.204L341.958 168.331L206.06 275.177L203.613 277.101L201.146 275.201L159.384 243.029L142.163 260.851L203.52 307.836L381.742 165.267L278.583 82.3682C280.284 79.4987 282.005 76.6007 283.742 73.6846L392.868 161.379L397.729 165.285L392.859 169.181L206.711 318.091L203.654 320.535L200.547 318.155L135.169 268.09L136.258 266.963L76.3018 329.01L72.3926 325.937L136.159 225.139L61.2197 167.409L57.0967 164.232L61.2275 161.065L201.07 53.8799L203.549 51.9805L205.993 53.9238L244.45 84.5049C244.084 84.9017 243.72 85.2972 243.356 85.6914C241.887 87.2853 240.44 88.8571 239.016 90.4033L203.458 62.1289L70.2256 164.248L140.455 218.349L171.106 169.897L168.953 168.205L198.609 130.463L200.71 132.113C201.27 131.502 202.075 130.624 203.103 129.502C205.25 127.157 208.373 123.749 212.27 119.501C220.063 111.005 230.957 99.1444 243.356 85.6914C249.081 79.4807 255.127 72.9305 261.337 66.2139C260.93 66.6535 260.524 67.0921 260.119 67.5303L203.505 22.0352L16.4717 164.599L122.899 246.099L117.531 254.583L5.19629 168.56L0 164.58L5.20508 160.613L200.557 11.71L203.669 9.33789L206.72 11.7891L266.927 60.1719C286.022 39.5414 306.199 17.8616 323.076 0L327.001 3.0625ZM106.736 290.317L200.211 193.584L189.439 185.122L106.736 290.317ZM102.752 287.297L185.508 182.033L174.713 173.55L102.752 287.297ZM262.741 109.271C257.861 117.609 253.375 125.317 249.463 132.065L287.897 162.821L290.357 164.79L287.882 166.738L205.134 231.842L203.594 233.054L202.05 231.848L183.889 217.671L164.979 237.24L203.562 266.963L333.036 165.168L262.741 109.271ZM242.791 143.601C239.927 148.566 237.641 152.545 236.071 155.282C235.287 156.651 234.682 157.71 234.272 158.426C234.264 158.44 234.256 158.453 234.248 158.467L236.352 160.119L206.695 197.861L204.613 196.225L187.382 214.056L203.581 226.7L282.313 164.757L246.928 136.44C245.443 139.006 244.06 141.4 242.791 143.601ZM204.981 96.4697L221.373 109.587C220.206 110.858 219.075 112.089 217.983 113.278L203.396 101.605L123.206 163.96L157.786 190.952L155.1 195.199L117.601 165.928L115.071 163.953L117.604 161.983L201.886 96.4482L203.442 95.2373L204.981 96.4697ZM209.325 155.67C204.635 151.985 197.846 152.8 194.161 157.489C190.476 162.179 191.29 168.969 195.979 172.654C200.669 176.34 207.459 175.525 211.145 170.835C214.83 166.145 214.015 159.355 209.325 155.67ZM295.868 43.7871C282.285 61.7821 268.518 80.2598 256.438 96.5684C245.617 111.179 236.153 124.045 229.395 133.258C226.016 137.864 223.314 141.558 221.456 144.1C220.895 144.868 220.409 145.531 220.007 146.082L230.746 154.521C231.035 154.017 231.365 153.441 231.734 152.796C233.306 150.055 235.593 146.071 238.459 141.103C244.191 131.164 252.238 117.281 261.496 101.499C271.935 83.7042 283.921 63.4869 295.868 43.7871ZM292.444 40.0234C276.919 56.708 261.018 73.9058 247.032 89.0801C234.636 102.529 223.746 114.387 215.954 122.881C212.058 127.128 208.937 130.534 206.79 132.879C206.22 133.502 205.717 134.049 205.288 134.518L216.072 142.991C216.454 142.469 216.904 141.853 217.419 141.149C219.278 138.606 221.982 134.91 225.363 130.301C232.125 121.083 241.595 108.21 252.422 93.5918C264.671 77.0534 278.663 58.2746 292.444 40.0234ZM248.356 133.974C247.962 134.655 247.572 135.326 247.19 135.985C247.572 135.326 247.961 134.655 248.356 133.974Z" fill="#AAD4C8"/>
</svg>
